<?xml version="1.0" standalone="no"?>
<!DOCTYPE svg PUBLIC "-//W3C//DTD SVG 20010904//EN"
 "http://www.w3.org/TR/2001/REC-SVG-20010904/DTD/svg10.dtd">
<svg version="1.0" xmlns="http://www.w3.org/2000/svg"
 width="800.000000pt" height="800.000000pt" viewBox="0 0 800.000000 800.000000"
 preserveAspectRatio="xMidYMid meet">
<metadata>
Created by potrace 1.11, written by Peter Selinger 2001-2013
</metadata>
<g transform="translate(0.000000,800.000000) scale(0.100000,-0.100000)"
fill="#000000" stroke="none">
<path d="M1845 5712 c-39 -3 -184 -25 -235 -36 -66 -14 -195 -62 -285 -106
-85 -41 -289 -168 -305 -189 -3 -4 -18 -17 -35 -30 -16 -12 -60 -52 -97 -88
l-67 -65 -16 39 c-9 21 -41 98 -71 172 -63 153 -75 172 -125 200 -34 20 -53
21 -264 21 -217 0 -229 -1 -267 -22 -24 -14 -48 -38 -59 -60 -18 -36 -19 -85
-19 -1590 l0 -1553 23 -40 c14 -25 37 -48 62 -60 38 -19 59 -20 510 -20 l470
0 37 23 c20 13 47 40 60 60 l23 37 1 845 c0 465 4 869 8 899 40 268 248 459
521 480 252 19 434 -94 520 -324 14 -36 27 -77 29 -92 2 -15 8 -48 12 -73 4
-25 8 -425 9 -890 1 -943 -4 -880 71 -937 l36 -27 427 -1 c234 -1 442 3 461 8
41 10 69 31 96 72 18 28 19 58 20 880 1 467 4 873 7 900 19 159 131 328 273
411 162 95 361 102 530 19 137 -67 248 -220 279 -385 3 -14 8 -38 12 -55 3
-16 7 -412 8 -880 1 -920 -1 -879 53 -928 44 -40 72 -42 553 -42 441 1 466 2
504 20 27 14 46 34 63 65 l23 45 -4 895 c-2 492 -6 910 -10 928 -3 18 -9 52
-12 75 -82 576 -372 1028 -795 1241 -131 66 -326 127 -455 141 -33 4 -69 9
-80 11 -26 6 -300 5 -347 0 -144 -17 -327 -71 -476 -141 -78 -37 -285 -163
-302 -184 -3 -3 -27 -24 -55 -46 -27 -22 -61 -51 -75 -65 -73 -69 -61 -70
-131 5 -189 200 -418 336 -685 404 -90 23 -321 41 -429 33z"/>
<path d="M6339 5706 c-2 -2 -33 -7 -69 -10 -36 -4 -83 -12 -105 -18 -22 -5
-49 -12 -61 -14 -108 -20 -346 -127 -474 -213 -124 -83 -117 -74 -84 -118 16
-21 31 -40 34 -43 23 -20 103 -158 160 -275 67 -137 123 -291 156 -430 9 -38
18 -71 19 -73 2 -2 23 11 48 28 25 16 76 42 114 57 59 23 82 27 183 27 94 0
127 -4 180 -23 82 -28 174 -90 223 -150 46 -55 101 -167 116 -236 6 -27 14
-61 17 -75 4 -14 7 -410 8 -880 1 -833 2 -856 21 -889 26 -45 64 -72 111 -80
22 -4 244 -6 494 -6 504 1 494 0 542 67 l23 33 2 875 c1 794 -2 939 -22 1058
-4 20 -8 46 -9 57 -10 71 -43 205 -72 292 -118 364 -333 651 -619 831 -137 85
-363 168 -515 188 -19 2 -46 7 -60 10 -31 7 -354 16 -361 10z"/>
</g>
</svg>
